Geo-Regular.ufo
<glyph name="quotedbl" format="1">
  <advance width="219"/>
  <unicode hex="0022"/>
  <outline>
    <contour>
      <point x="20" y="676" type="line"/>
      <point x="20" y="481" type="line"/>
      <point x="96" y="481" type="line"/>
      <point x="96" y="676" type="line"/>
    </contour>
    <contour>
      <point x="123" y="676" type="line"/>
      <point x="123" y="481" type="line"/>
      <point x="199" y="481" type="line"/>
      <point x="199" y="676" type="line"/>
    </contour>
  </outline>
</glyph>
<glyph name="asterisk" format="1">
  <advance width="491"/>
  <unicode hex="002A"/>
  <outline>
    <contour>
      <point x="118" y="256" type="line"/>
      <point x="118" y="369" type="line"/>
      <point x="46" y="317" type="line"/>
      <point x="5" y="389" type="line"/>
      <point x="87" y="427" type="line"/>
      <point x="5" y="481" type="line"/>
      <point x="46" y="543" type="line"/>
      <point x="118" y="502" type="line"/>
      <point x="118" y="614" type="line"/>
      <point x="189" y="614" type="line"/>
      <point x="189" y="502" type="line"/>
      <point x="261" y="543" type="line"/>
      <point x="312" y="478" type="line"/>
      <point x="230" y="427" type="line"/>
      <point x="312" y="389" type="line"/>
      <point x="261" y="317" type="line"/>
      <point x="189" y="369" type="line"/>
      <point x="189" y="256" type="line"/>
    </contour>
  </outline>
</glyph>
<glyph name="comma" format="1">
  <advance width="239"/>
  <unicode hex="002C"/>
  <outline>
    <contour>
      <point x="51" y="-82" type="line"/>
      <point x="102" y="123" type="line"/>
      <point x="178" y="123" type="line"/>
      <point x="127" y="-82" type="line"/>
    </contour>
  </outline>
</glyph>
<glyph name="one" format="1">
  <advance width="512"/>
  <unicode hex="0031"/>
  <outline>
    <contour>
      <point x="356" y="0" type="line"/>
      <point x="281" y="0" type="line"/>
      <point x="281" y="379" type="line"/>
      <point x="108" y="379" type="line"/>
      <point x="108" y="450" type="line"/>
      <point x="356" y="451" type="line"/>
    </contour>
  </outline>
</glyph>
<glyph name="G" format="1">
  <advance width="481"/>
  <unicode hex="0047"/>
  <outline>
    <contour>
      <point x="225" y="379" type="line"/>
      <point x="399" y="379" type="line"/>
      <point x="399" y="0" type="line"/>
      <point x="82" y="0" type="line"/>
      <point x="82" y="573" type="line"/>
      <point x="399" y="573" type="line"/>
      <point x="399" y="498" type="line"/>
      <point x="162" y="498" type="line"/>
      <point x="162" y="72" type="line"/>
      <point x="323" y="72" type="line"/>
      <point x="323" y="308" type="line"/>
      <point x="225" y="308" type="line"/>
    </contour>
  </outline>
</glyph>
<glyph name="H" format="1">
  <advance width="481"/>
  <unicode hex="0048"/>
  <outline>
    <contour>
      <point x="319" y="379" type="line"/>
      <point x="158" y="379" type="line"/>
      <point x="158" y="573" type="line"/>
      <point x="82" y="573" type="line"/>
      <point x="82" y="0" type="line"/>
      <point x="158" y="0" type="line"/>
      <point x="158" y="307" type="line"/>
      <point x="319" y="307" type="line"/>
      <point x="319" y="0" type="line"/>
      <point x="399" y="0" type="line"/>
      <point x="399" y="573" type="line"/>
      <point x="319" y="573" type="line"/>
    </contour>
  </outline>
</glyph>
<glyph name="I" format="1">
  <advance width="324"/>
  <unicode hex="0049"/>
  <outline>
    <contour>
      <point x="124" y="500" type="line"/>
      <point x="51" y="500" type="line"/>
      <point x="51" y="573" type="line"/>
      <point x="268" y="573" type="line"/>
      <point x="268" y="500" type="line"/>
      <point x="200" y="500" type="line"/>
      <point x="200" y="74" type="line"/>
      <point x="273" y="74" type="line"/>
      <point x="273" y="0" type="line"/>
      <point x="57" y="0" type="line"/>
      <point x="57" y="74" type="line"/>
      <point x="124" y="74" type="line"/>
    </contour>
  </outline>
</glyph>
<glyph name="L" format="1">
  <advance width="481"/>
  <unicode hex="004C"/>
  <outline>
    <contour>
      <point x="158" y="78" type="line"/>
      <point x="399" y="78" type="line"/>
      <point x="399" y="0" type="line"/>
      <point x="82" y="0" type="line"/>
      <point x="82" y="573" type="line"/>
      <point x="158" y="574" type="line"/>
    </contour>
  </outline>
</glyph>
<glyph name="M" format="1">
  <advance width="716"/>
  <unicode hex="004D"/>
  <outline>
    <contour>
      <point x="399" y="0" type="line"/>
      <point x="317" y="0" type="line"/>
      <point x="317" y="502" type="line"/>
      <point x="158" y="502" type="line"/>
      <point x="158" y="0" type="line"/>
      <point x="82" y="0" type="line"/>
      <point x="82" y="573" type="line"/>
      <point x="635" y="573" type="line"/>
      <point x="635" y="0" type="line"/>
      <point x="555" y="0" type="line"/>
      <point x="555" y="502" type="line"/>
      <point x="399" y="502" type="line"/>
    </contour>
  </outline>
</glyph>
<glyph name="N" format="1">
  <advance width="481"/>
  <unicode hex="004E"/>
  <outline>
    <contour>
      <point x="155" y="574" type="line"/>
      <point x="82" y="573" type="line"/>
      <point x="82" y="0" type="line"/>
      <point x="158" y="0" type="line"/>
      <point x="158" y="358" type="line"/>
      <point x="339" y="0" type="line"/>
      <point x="399" y="0" type="line"/>
      <point x="399" y="573" type="line"/>
      <point x="319" y="573" type="line"/>
      <point x="319" y="256" type="line"/>
    </contour>
  </outline>
</glyph>
<glyph name="O" format="1">
  <advance width="481"/>
  <unicode hex="004F"/>
  <outline>
    <contour>
      <point x="158" y="78" type="line"/>
      <point x="319" y="78" type="line"/>
      <point x="319" y="501" type="line"/>
      <point x="158" y="501" type="line"/>
    </contour>
    <contour>
      <point x="82" y="0" type="line"/>
      <point x="82" y="573" type="line"/>
      <point x="399" y="573" type="line"/>
      <point x="399" y="0" type="line"/>
    </contour>
  </outline>
</glyph>
<glyph name="P" format="1">
  <advance width="460"/>
  <unicode hex="0050"/>
  <outline>
    <contour>
      <point x="379" y="256" type="line"/>
      <point x="158" y="256" type="line"/>
      <point x="159" y="0" type="line"/>
      <point x="82" y="0" type="line"/>
      <point x="82" y="573" type="line"/>
      <point x="379" y="573" type="line"/>
    </contour>
    <contour>
      <point x="299" y="328" type="line"/>
      <point x="299" y="502" type="line"/>
      <point x="158" y="502" type="line"/>
      <point x="158" y="328" type="line"/>
    </contour>
  </outline>
</glyph>
<glyph name="Q" format="1">
  <advance width="481"/>
  <unicode hex="0051"/>
  <outline>
    <contour>
      <point x="322" y="-154" type="line"/>
      <point x="246" y="-154" type="line"/>
      <point x="246" y="0" type="line"/>
      <point x="82" y="0" type="line"/>
      <point x="82" y="573" type="line"/>
      <point x="399" y="573" type="line"/>
      <point x="399" y="0" type="line"/>
      <point x="322" y="0" type="line"/>
    </contour>
    <contour>
      <point x="319" y="78" type="line"/>
      <point x="319" y="502" type="line"/>
      <point x="158" y="501" type="line"/>
      <point x="158" y="78" type="line"/>
    </contour>
  </outline>
</glyph>
<glyph name="S" format="1">
  <advance width="481"/>
  <unicode hex="0053"/>
  <outline>
    <contour>
      <point x="158" y="75" type="line"/>
      <point x="158" y="164" type="line"/>
      <point x="82" y="164" type="line"/>
      <point x="82" y="0" type="line"/>
      <point x="397" y="1" type="line"/>
      <point x="397" y="243" type="line"/>
      <point x="162" y="379" type="line"/>
      <point x="162" y="499" type="line"/>
      <point x="324" y="499" type="line"/>
      <point x="324" y="410" type="line"/>
      <point x="399" y="410" type="line"/>
      <point x="399" y="573" type="line"/>
      <point x="82" y="573" type="line"/>
      <point x="82" y="307" type="line"/>
      <point x="319" y="170" type="line"/>
      <point x="319" y="75" type="line"/>
    </contour>
  </outline>
</glyph>
<glyph name="V" format="1">
  <advance width="450"/>
  <unicode hex="0056"/>
  <outline>
    <contour>
      <point x="410" y="573" type="line"/>
      <point x="307" y="0" type="line"/>
      <point x="143" y="0" type="line"/>
      <point x="41" y="573" type="line"/>
      <point x="137" y="573" type="line"/>
      <point x="209" y="82" type="line"/>
      <point x="238" y="82" type="line"/>
      <point x="309" y="573" type="line"/>
    </contour>
  </outline>
</glyph>
<glyph name="W" format="1">
  <advance width="716"/>
  <unicode hex="0057"/>
  <outline>
    <contour>
      <point x="317" y="573" type="line"/>
      <point x="399" y="573" type="line"/>
      <point x="399" y="72" type="line"/>
      <point x="559" y="72" type="line"/>
      <point x="559" y="573" type="line"/>
      <point x="635" y="573" type="line"/>
      <point x="635" y="0" type="line"/>
      <point x="82" y="0" type="line"/>
      <point x="82" y="573" type="line"/>
      <point x="162" y="573" type="line"/>
      <point x="162" y="72" type="line"/>
      <point x="317" y="72" type="line"/>
    </contour>
  </outline>
</glyph>
<glyph name="X" format="1">
  <advance width="481"/>
  <unicode hex="0058"/>
  <outline>
    <contour>
      <point x="451" y="0" type="line"/>
      <point x="340" y="0" type="line"/>
      <point x="248" y="256" type="line"/>
      <point x="229" y="256" type="line"/>
      <point x="137" y="0" type="line"/>
      <point x="31" y="0" type="line"/>
      <point x="150" y="307" type="line"/>
      <point x="41" y="573" type="line"/>
      <point x="147" y="573" type="line"/>
      <point x="229" y="328" type="line"/>
      <point x="248" y="328" type="line"/>
      <point x="330" y="573" type="line"/>
      <point x="440" y="573" type="line"/>
      <point x="332" y="307" type="line"/>
    </contour>
  </outline>
</glyph>
<glyph name="bracketleft" format="1">
  <advance width="228"/>
  <unicode hex="005B"/>
  <outline>
    <contour>
      <point x="249" y="-195" type="line"/>
      <point x="0" y="-195" type="line"/>
      <point x="0" y="676" type="line"/>
      <point x="249" y="676" type="line"/>
      <point x="249" y="594" type="line"/>
      <point x="76" y="594" type="line"/>
      <point x="76" y="-113" type="line"/>
      <point x="249" y="-113" type="line"/>
    </contour>
  </outline>
</glyph>
<glyph name="e" format="1">
  <advance width="481"/>
  <unicode hex="0065"/>
  <outline>
    <contour>
      <point x="162" y="184" type="line"/>
      <point x="162" y="72" type="line"/>
      <point x="399" y="72" type="line"/>
      <point x="399" y="0" type="line"/>
      <point x="82" y="0" type="line"/>
      <point x="82" y="451" type="line"/>
      <point x="397" y="451" type="line"/>
      <point x="397" y="184" type="line"/>
    </contour>
    <contour>
      <point x="162" y="258" type="line"/>
      <point x="324" y="258" type="line"/>
      <point x="324" y="377" type="line"/>
      <point x="162" y="377" type="line"/>
    </contour>
  </outline>
</glyph>
<glyph name="j" format="1">
  <advance width="238"/>
  <unicode hex="006A"/>
  <outline>
    <contour>
      <point x="81" y="676" type="line"/>
      <point x="157" y="676" type="line"/>
      <point x="157" y="543" type="line"/>
      <point x="81" y="543" type="line"/>
    </contour>
    <contour>
      <point x="0" y="-154" type="line"/>
      <point x="0" y="-78" type="line"/>
      <point x="81" y="-78" type="line"/>
      <point x="81" y="450" type="line"/>
      <point x="157" y="450" type="line"/>
      <point x="157" y="-154" type="line"/>
    </contour>
  </outline>
</glyph>
<glyph name="k" format="1">
  <advance width="481"/>
  <unicode hex="006B"/>
  <outline>
    <contour>
      <point x="430" y="0" type="line"/>
      <point x="230" y="233" type="line"/>
      <point x="420" y="450" type="line"/>
      <point x="311" y="450" type="line"/>
      <point x="158" y="259" type="line"/>
      <point x="158" y="676" type="line"/>
      <point x="82" y="676" type="line"/>
      <point x="82" y="0" type="line"/>
      <point x="158" y="0" type="line"/>
      <point x="158" y="198" type="line"/>
      <point x="173" y="198" type="line"/>
      <point x="312" y="0" type="line"/>
    </contour>
  </outline>
</glyph>
<glyph name="l" format="1">
  <advance width="239"/>
  <unicode hex="006C"/>
  <outline>
    <contour>
      <point x="82" y="676" type="line"/>
      <point x="82" y="0" type="line"/>
      <point x="158" y="0" type="line"/>
      <point x="158" y="676" type="line"/>
    </contour>
  </outline>
</glyph>
<glyph name="m" format="1">
  <advance width="716"/>
  <unicode hex="006D"/>
  <outline>
    <contour>
      <point x="399" y="0" type="line"/>
      <point x="317" y="0" type="line"/>
      <point x="317" y="379" type="line"/>
      <point x="158" y="379" type="line"/>
      <point x="158" y="0" type="line"/>
      <point x="82" y="0" type="line"/>
      <point x="82" y="451" type="line"/>
      <point x="635" y="451" type="line"/>
      <point x="635" y="0" type="line"/>
      <point x="555" y="0" type="line"/>
      <point x="555" y="379" type="line"/>
      <point x="399" y="379" type="line"/>
    </contour>
  </outline>
</glyph>
<glyph name="n" format="1">
  <advance width="481"/>
  <unicode hex="006E"/>
  <outline>
    <contour>
      <point x="399" y="0" type="line"/>
      <point x="399" y="451" type="line"/>
      <point x="82" y="451" type="line"/>
      <point x="82" y="0" type="line"/>
      <point x="158" y="0" type="line"/>
      <point x="158" y="379" type="line"/>
      <point x="319" y="379" type="line"/>
      <point x="319" y="0" type="line"/>
    </contour>
  </outline>
</glyph>
<glyph name="p" format="1">
  <advance width="481"/>
  <unicode hex="0070"/>
  <outline>
    <contour>
      <point x="158" y="0" type="line"/>
      <point x="399" y="0" type="line"/>
      <point x="399" y="451" type="line"/>
      <point x="82" y="451" type="line"/>
      <point x="82" y="-225" type="line"/>
      <point x="158" y="-225" type="line"/>
    </contour>
    <contour>
      <point x="158" y="377" type="line"/>
      <point x="319" y="376" type="line"/>
      <point x="319" y="72" type="line"/>
      <point x="158" y="72" type="line"/>
    </contour>
  </outline>
</glyph>
<glyph name="r" format="1">
  <advance width="409"/>
  <unicode hex="0072"/>
  <outline>
    <contour>
      <point x="272" y="377" type="line"/>
      <point x="162" y="376" type="line"/>
      <point x="162" y="0" type="line"/>
      <point x="82" y="0" type="line"/>
      <point x="82" y="451" type="line"/>
      <point x="348" y="451" type="line"/>
      <point x="348" y="287" type="line"/>
      <point x="272" y="287" type="line"/>
    </contour>
  </outline>
</glyph>
<glyph name="s" format="1">
  <advance width="481"/>
  <unicode hex="0073"/>
  <outline>
    <contour>
      <point x="158" y="75" type="line"/>
      <point x="158" y="113" type="line"/>
      <point x="82" y="113" type="line"/>
      <point x="82" y="0" type="line"/>
      <point x="397" y="0" type="line"/>
      <point x="397" y="232" type="line"/>
      <point x="162" y="287" type="line"/>
      <point x="162" y="376" type="line"/>
      <point x="324" y="376" type="line"/>
      <point x="324" y="287" type="line"/>
      <point x="399" y="287" type="line"/>
      <point x="399" y="451" type="line"/>
      <point x="82" y="451" type="line"/>
      <point x="82" y="215" type="line"/>
      <point x="319" y="160" type="line"/>
      <point x="319" y="75" type="line"/>
    </contour>
  </outline>
</glyph>
<glyph name="u" format="1">
  <advance width="481"/>
  <unicode hex="0075"/>
  <outline>
    <contour>
      <point x="399" y="451" type="line"/>
      <point x="399" y="0" type="line"/>
      <point x="82" y="0" type="line"/>
      <point x="82" y="451" type="line"/>
      <point x="158" y="451" type="line"/>
      <point x="158" y="72" type="line"/>
      <point x="319" y="72" type="line"/>
      <point x="319" y="451" type="line"/>
    </contour>
  </outline>
</glyph>
<glyph name="yen" format="1">
  <advance width="512"/>
  <unicode hex="00A5"/>
  <outline>
    <contour>
      <point x="476" y="123" type="line"/>
      <point x="410" y="123" type="line"/>
      <point x="410" y="0" type="line"/>
      <point x="92" y="0" type="line"/>
      <point x="92" y="72" type="line"/>
      <point x="330" y="72" type="line"/>
      <point x="330" y="123" type="line"/>
      <point x="36" y="123" type="line"/>
      <point x="36" y="195" type="line"/>
      <point x="330" y="195" type="line"/>
      <point x="330" y="246" type="line"/>
      <point x="36" y="246" type="line"/>
      <point x="36" y="317" type="line"/>
      <point x="330" y="317" type="line"/>
      <point x="330" y="389" type="line"/>
      <point x="94" y="389" type="line"/>
      <point x="94" y="573" type="line"/>
      <point x="168" y="573" type="line"/>
      <point x="168" y="463" type="line"/>
      <point x="330" y="463" type="line"/>
      <point x="330" y="573" type="line"/>
      <point x="410" y="573" type="line"/>
      <point x="410" y="317" type="line"/>
      <point x="476" y="317" type="line"/>
      <point x="476" y="246" type="line"/>
      <point x="410" y="246" type="line"/>
      <point x="410" y="195" type="line"/>
      <point x="476" y="195" type="line"/>
    </contour>
  </outline>
</glyph>
<glyph name="brokenbar" format="1">
  <advance width="239"/>
  <unicode hex="00A6"/>
  <outline>
    <contour>
      <point x="82" y="205" type="line"/>
      <point x="82" y="-143" type="line"/>
      <point x="158" y="-143" type="line"/>
      <point x="158" y="205" type="line"/>
    </contour>
    <contour>
      <point x="82" y="676" type="line"/>
      <point x="82" y="328" type="line"/>
      <point x="158" y="328" type="line"/>
      <point x="158" y="676" type="line"/>
    </contour>
  </outline>
</glyph>
<glyph name="dieresis" format="1">
  <advance width="481"/>
  <unicode hex="00A8"/>
  <outline>
    <contour>
      <point x="82" y="676" type="line"/>
      <point x="82" y="543" type="line"/>
      <point x="158" y="543" type="line"/>
      <point x="158" y="676" type="line"/>
    </contour>
    <contour>
      <point x="266" y="676" type="line"/>
      <point x="266" y="543" type="line"/>
      <point x="342" y="543" type="line"/>
      <point x="342" y="676" type="line"/>
    </contour>
  </outline>
</glyph>
<glyph name="cedilla" format="1">
  <advance width="481"/>
  <unicode hex="00B8"/>
  <outline>
    <contour>
      <point x="195" y="-174" type="line"/>
      <point x="256" y="31" type="line"/>
      <point x="332" y="31" type="line"/>
      <point x="281" y="-174" type="line"/>
    </contour>
  </outline>
</glyph>
<glyph name="Acircumflex" format="1">
  <advance width="481"/>
  <unicode hex="00C2"/>
  <outline>
    <contour>
      <point x="158" y="502" type="line"/>
      <point x="158" y="328" type="line"/>
      <point x="319" y="328" type="line"/>
      <point x="319" y="502" type="line"/>
    </contour>
    <contour>
      <point x="399" y="0" type="line"/>
      <point x="319" y="0" type="line"/>
      <point x="319" y="256" type="line"/>
      <point x="158" y="256" type="line"/>
      <point x="158" y="0" type="line"/>
      <point x="82" y="0" type="line"/>
      <point x="82" y="573" type="line"/>
      <point x="399" y="573" type="line"/>
    </contour>
    <contour>
      <point x="225" y="803" type="line"/>
      <point x="365" y="664" type="line"/>
      <point x="309" y="610" type="line"/>
      <point x="225" y="702" type="line"/>
      <point x="141" y="610" type="line"/>
      <point x="86" y="664" type="line"/>
    </contour>
  </outline>
</glyph>
<glyph name="Atilde" format="1">
  <advance width="481"/>
  <unicode hex="00C3"/>
  <outline>
    <contour>
      <point x="133" y="725" type="line"/>
      <point x="214" y="725" type="line"/>
      <point x="214" y="638" type="line"/>
      <point x="417" y="638" type="line"/>
      <point x="417" y="785" type="line"/>
      <point x="354" y="785" type="line"/>
      <point x="354" y="702" type="line"/>
      <point x="279" y="702" type="line"/>
      <point x="279" y="785" type="line"/>
      <point x="74" y="785" type="line"/>
      <point x="74" y="638" type="line"/>
      <point x="133" y="638" type="line"/>
    </contour>
    <contour>
      <point x="158" y="502" type="line"/>
      <point x="158" y="328" type="line"/>
      <point x="319" y="328" type="line"/>
      <point x="319" y="502" type="line"/>
    </contour>
    <contour>
      <point x="399" y="0" type="line"/>
      <point x="319" y="0" type="line"/>
      <point x="319" y="256" type="line"/>
      <point x="158" y="256" type="line"/>
      <point x="158" y="0" type="line"/>
      <point x="82" y="0" type="line"/>
      <point x="82" y="573" type="line"/>
      <point x="399" y="573" type="line"/>
    </contour>
  </outline>
</glyph>
<glyph name="Egrave" format="1">
  <advance width="481"/>
  <unicode hex="00C8"/>
  <outline>
    <contour>
      <point x="399" y="78" type="line"/>
      <point x="399" y="0" type="line"/>
      <point x="82" y="0" type="line"/>
      <point x="82" y="573" type="line"/>
      <point x="399" y="574" type="line"/>
      <point x="399" y="502" type="line"/>
      <point x="158" y="502" type="line"/>
      <point x="158" y="378" type="line"/>
      <point x="399" y="378" type="line"/>
      <point x="399" y="306" type="line"/>
      <point x="158" y="306" type="line"/>
      <point x="158" y="78" type="line"/>
    </contour>
    <contour>
      <point x="137" y="788" type="line"/>
      <point x="342" y="655" type="line"/>
      <point x="287" y="594" type="line"/>
      <point x="82" y="727" type="line"/>
    </contour>
  </outline>
</glyph>
<glyph name="Ntilde" format="1">
  <advance width="481"/>
  <unicode hex="00D1"/>
  <outline>
    <contour>
      <point x="133" y="725" type="line"/>
      <point x="214" y="725" type="line"/>
      <point x="214" y="638" type="line"/>
      <point x="417" y="638" type="line"/>
      <point x="417" y="785" type="line"/>
      <point x="354" y="785" type="line"/>
      <point x="354" y="702" type="line"/>
      <point x="279" y="702" type="line"/>
      <point x="279" y="785" type="line"/>
      <point x="74" y="785" type="line"/>
      <point x="74" y="638" type="line"/>
      <point x="133" y="638" type="line"/>
    </contour>
    <contour>
      <point x="155" y="574" type="line"/>
      <point x="82" y="573" type="line"/>
      <point x="82" y="0" type="line"/>
      <point x="158" y="0" type="line"/>
      <point x="158" y="358" type="line"/>
      <point x="339" y="0" type="line"/>
      <point x="399" y="0" type="line"/>
      <point x="399" y="573" type="line"/>
      <point x="319" y="573" type="line"/>
      <point x="319" y="256" type="line"/>
    </contour>
  </outline>
</glyph>
<glyph name="Oslash" format="1">
  <advance width="481"/>
  <unicode hex="00D8"/>
  <outline>
    <contour>
      <point x="259" y="501" type="line"/>
      <point x="158" y="501" type="line"/>
      <point x="158" y="119" type="line"/>
    </contour>
    <contour>
      <point x="222" y="78" type="line"/>
      <point x="319" y="78" type="line"/>
      <point x="319" y="444" type="line"/>
    </contour>
    <contour>
      <point x="82" y="0" type="line"/>
      <point x="82" y="573" type="line"/>
      <point x="278" y="573" type="line"/>
      <point x="297" y="645" type="line"/>
      <point x="373" y="645" type="line"/>
      <point x="353" y="573" type="line"/>
      <point x="399" y="573" type="line"/>
      <point x="399" y="0" type="line"/>
      <point x="202" y="0" type="line"/>
      <point x="188" y="-51" type="line"/>
      <point x="113" y="-51" type="line"/>
      <point x="126" y="0" type="line"/>
    </contour>
  </outline>
</glyph>
<glyph name="Ucircumflex" format="1">
  <advance width="481"/>
  <unicode hex="00DB"/>
  <outline>
    <contour>
      <point x="399" y="573" type="line"/>
      <point x="399" y="0" type="line"/>
      <point x="82" y="0" type="line"/>
      <point x="82" y="573" type="line"/>
      <point x="158" y="573" type="line"/>
      <point x="158" y="72" type="line"/>
      <point x="319" y="72" type="line"/>
      <point x="319" y="573" type="line"/>
    </contour>
    <contour>
      <point x="225" y="803" type="line"/>
      <point x="365" y="664" type="line"/>
      <point x="309" y="610" type="line"/>
      <point x="225" y="702" type="line"/>
      <point x="141" y="610" type="line"/>
      <point x="86" y="664" type="line"/>
    </contour>
  </outline>
</glyph>
<glyph name="germandbls" format="1">
  <advance width="669"/>
  <unicode hex="00DF"/>
  <outline>
    <contour>
      <point x="82" y="645" type="line"/>
      <point x="301" y="645" type="line"/>
      <point x="301" y="574" type="line"/>
      <point x="158" y="574" type="line"/>
      <point x="158" y="0" type="line"/>
      <point x="82" y="0" type="line"/>
    </contour>
    <contour>
      <point x="346" y="75" type="line"/>
      <point x="346" y="113" type="line"/>
      <point x="270" y="113" type="line"/>
      <point x="270" y="0" type="line"/>
      <point x="586" y="1" type="line"/>
      <point x="586" y="232" type="line"/>
      <point x="350" y="287" type="line"/>
      <point x="350" y="376" type="line"/>
      <point x="512" y="376" type="line"/>
      <point x="512" y="287" type="line"/>
      <point x="588" y="287" type="line"/>
      <point x="588" y="451" type="line"/>
      <point x="270" y="451" type="line"/>
      <point x="270" y="215" type="line"/>
      <point x="508" y="160" type="line"/>
      <point x="508" y="75" type="line"/>
    </contour>
  </outline>
</glyph>
<glyph name="agrave" format="1">
  <advance width="481"/>
  <unicode hex="00E0"/>
  <outline>
    <contour>
      <point x="319" y="266" type="line"/>
      <point x="319" y="379" type="line"/>
      <point x="82" y="379" type="line"/>
      <point x="82" y="451" type="line"/>
      <point x="399" y="451" type="line"/>
      <point x="399" y="0" type="line"/>
      <point x="84" y="0" type="line"/>
      <point x="84" y="266" type="line"/>
    </contour>
    <contour>
      <point x="319" y="193" type="line"/>
      <point x="158" y="193" type="line"/>
      <point x="158" y="74" type="line"/>
      <point x="319" y="74" type="line"/>
    </contour>
    <contour>
      <point x="137" y="676" type="line"/>
      <point x="342" y="543" type="line"/>
      <point x="287" y="481" type="line"/>
      <point x="82" y="614" type="line"/>
    </contour>
  </outline>
</glyph>
<glyph name="atilde" format="1">
  <advance width="481"/>
  <unicode hex="00E3"/>
  <outline>
    <contour>
      <point x="133" y="633" type="line"/>
      <point x="214" y="633" type="line"/>
      <point x="214" y="546" type="line"/>
      <point x="417" y="546" type="line"/>
      <point x="417" y="693" type="line"/>
      <point x="354" y="693" type="line"/>
      <point x="354" y="610" type="line"/>
      <point x="279" y="610" type="line"/>
      <point x="279" y="693" type="line"/>
      <point x="74" y="693" type="line"/>
      <point x="74" y="546" type="line"/>
      <point x="133" y="546" type="line"/>
    </contour>
    <contour>
      <point x="319" y="266" type="line"/>
      <point x="319" y="379" type="line"/>
      <point x="82" y="379" type="line"/>
      <point x="82" y="451" type="line"/>
      <point x="399" y="451" type="line"/>
      <point x="399" y="0" type="line"/>
      <point x="84" y="0" type="line"/>
      <point x="84" y="266" type="line"/>
    </contour>
    <contour>
      <point x="319" y="193" type="line"/>
      <point x="158" y="193" type="line"/>
      <point x="158" y="74" type="line"/>
      <point x="319" y="74" type="line"/>
    </contour>
  </outline>
</glyph>
<glyph name="aring" format="1">
  <advance width="481"/>
  <unicode hex="00E5"/>
  <outline>
    <contour>
      <point x="319" y="266" type="line"/>
      <point x="319" y="379" type="line"/>
      <point x="82" y="379" type="line"/>
      <point x="82" y="451" type="line"/>
      <point x="399" y="451" type="line"/>
      <point x="399" y="0" type="line"/>
      <point x="84" y="0" type="line"/>
      <point x="84" y="266" type="line"/>
    </contour>
    <contour>
      <point x="319" y="193" type="line"/>
      <point x="158" y="193" type="line"/>
      <point x="158" y="74" type="line"/>
      <point x="319" y="74" type="line"/>
    </contour>
    <contour>
      <point x="84" y="520" type="line"/>
      <point x="84" y="729" type="line"/>
      <point x="274" y="729" type="line"/>
      <point x="274" y="520" type="line"/>
    </contour>
    <contour>
      <point x="219" y="685" type="line"/>
      <point x="142" y="684" type="line"/>
      <point x="142" y="563" type="line"/>
      <point x="219" y="563" type="line"/>
    </contour>
  </outline>
</glyph>
<glyph name="ae" format="1">
  <advance width="727"/>
  <unicode hex="00E6"/>
  <outline>
    <contour>
      <point x="84" y="287" type="line"/>
      <point x="319" y="287" type="line"/>
      <point x="319" y="379" type="line"/>
      <point x="82" y="379" type="line"/>
      <point x="82" y="451" type="line"/>
      <point x="643" y="451" type="line"/>
      <point x="643" y="164" type="line"/>
      <point x="408" y="164" type="line"/>
      <point x="408" y="72" type="line"/>
      <point x="645" y="72" type="line"/>
      <point x="645" y="0" type="line"/>
      <point x="84" y="0" type="line"/>
    </contour>
    <contour>
      <point x="569" y="238" type="line"/>
      <point x="569" y="377" type="line"/>
      <point x="408" y="377" type="line"/>
      <point x="408" y="238" type="line"/>
    </contour>
    <contour>
      <point x="319" y="74" type="line"/>
      <point x="319" y="213" type="line"/>
      <point x="158" y="213" type="line"/>
      <point x="158" y="74" type="line"/>
    </contour>
  </outline>
</glyph>
<glyph name="iacute" format="1">
  <advance width="239"/>
  <unicode hex="00ED"/>
  <outline>
    <contour>
      <point x="82" y="450" type="line"/>
      <point x="82" y="0" type="line"/>
      <point x="158" y="0" type="line"/>
      <point x="158" y="451" type="line"/>
    </contour>
    <contour>
      <point x="195" y="676" type="line"/>
      <point x="-10" y="543" type="line"/>
      <point x="45" y="481" type="line"/>
      <point x="250" y="614" type="line"/>
    </contour>
  </outline>
</glyph>
<glyph name="idieresis" format="1">
  <advance width="239"/>
  <unicode hex="00EF"/>
  <outline>
    <contour>
      <point x="82" y="450" type="line"/>
      <point x="82" y="0" type="line"/>
      <point x="158" y="0" type="line"/>
      <point x="158" y="451" type="line"/>
    </contour>
    <contour>
      <point x="-10" y="676" type="line"/>
      <point x="-10" y="543" type="line"/>
      <point x="66" y="543" type="line"/>
      <point x="66" y="676" type="line"/>
    </contour>
    <contour>
      <point x="174" y="676" type="line"/>
      <point x="174" y="543" type="line"/>
      <point x="250" y="543" type="line"/>
      <point x="250" y="676" type="line"/>
    </contour>
  </outline>
</glyph>
<glyph name="divide" format="1">
  <advance width="512"/>
  <unicode hex="00F7"/>
  <outline>
    <contour>
      <point x="220" y="102" type="line"/>
      <point x="220" y="0" type="line"/>
      <point x="296" y="0" type="line"/>
      <point x="296" y="102" type="line"/>
    </contour>
    <contour>
      <point x="220" y="451" type="line"/>
      <point x="220" y="348" type="line"/>
      <point x="296" y="348" type="line"/>
      <point x="296" y="451" type="line"/>
    </contour>
    <contour>
      <point x="471" y="195" type="line"/>
      <point x="471" y="266" type="line"/>
      <point x="41" y="266" type="line"/>
      <point x="41" y="195" type="line"/>
    </contour>
  </outline>
</glyph>
<glyph name="ugrave" format="1">
  <advance width="481"/>
  <unicode hex="00F9"/>
  <outline>
    <contour>
      <point x="399" y="451" type="line"/>
      <point x="399" y="0" type="line"/>
      <point x="82" y="0" type="line"/>
      <point x="82" y="451" type="line"/>
      <point x="158" y="451" type="line"/>
      <point x="158" y="72" type="line"/>
      <point x="319" y="72" type="line"/>
      <point x="319" y="451" type="line"/>
    </contour>
    <contour>
      <point x="137" y="676" type="line"/>
      <point x="342" y="543" type="line"/>
      <point x="287" y="481" type="line"/>
      <point x="82" y="614" type="line"/>
    </contour>
  </outline>
</glyph>
<glyph name="OE" format="1">
  <advance width="721"/>
  <unicode hex="0152"/>
  <outline>
    <contour>
      <point x="158" y="78" type="line"/>
      <point x="319" y="78" type="line"/>
      <point x="319" y="501" type="line"/>
      <point x="158" y="501" type="line"/>
    </contour>
    <contour>
      <point x="640" y="78" type="line"/>
      <point x="640" y="0" type="line"/>
      <point x="82" y="0" type="line"/>
      <point x="82" y="573" type="line"/>
      <point x="172.5" y="573.0" name="inserted"/>
      <point x="451.5" y="573.5"/>
      <point x="640" y="574" type="qcurve"/>
      <point x="640" y="502" type="line"/>
      <point x="399" y="502" type="line"/>
      <point x="399" y="378" type="line"/>
      <point x="640" y="378" type="line"/>
      <point x="640" y="306" type="line"/>
      <point x="399" y="306" type="line"/>
      <point x="399" y="78" type="line"/>
    </contour>
  </outline>
</glyph>
<glyph name="Zcaron" format="1">
  <advance width="481"/>
  <unicode hex="017D"/>
  <outline>
    <contour>
      <point x="182" y="72" type="line"/>
      <point x="391" y="72" type="line"/>
      <point x="391" y="0" type="line"/>
      <point x="82" y="0" type="line"/>
      <point x="82" y="72" type="line"/>
      <point x="319" y="499" type="line"/>
      <point x="82" y="499" type="line"/>
      <point x="82" y="573" type="line"/>
      <point x="399" y="573" type="line"/>
      <point x="399" y="496" type="line"/>
    </contour>
    <contour>
      <point x="225" y="600" type="line"/>
      <point x="86" y="739" type="line"/>
      <point x="141" y="793" type="line"/>
      <point x="225" y="700" type="line"/>
      <point x="309" y="793" type="line"/>
      <point x="365" y="739" type="line"/>
    </contour>
  </outline>
</glyph>
<glyph name="florin" format="1">
  <advance width="481"/>
  <unicode hex="0192"/>
  <outline>
    <contour>
      <point x="82" y="255" type="line"/>
      <point x="180" y="255" type="line"/>
      <point x="180" y="451" type="line"/>
      <point x="399" y="451" type="line"/>
      <point x="399" y="380" type="line"/>
      <point x="256" y="380" type="line"/>
      <point x="256" y="255" type="line"/>
      <point x="399" y="255" type="line"/>
      <point x="399" y="184" type="line"/>
      <point x="256" y="184" type="line"/>
      <point x="256" y="-195" type="line"/>
      <point x="180" y="-195" type="line"/>
      <point x="180" y="184" type="line"/>
      <point x="82" y="184" type="line"/>
    </contour>
  </outline>
</glyph>
<glyph name="endash" format="1">
  <advance width="512"/>
  <unicode hex="2013"/>
  <outline>
    <contour>
      <point x="512" y="205" type="line"/>
      <point x="512" y="276" type="line"/>
      <point x="0" y="276" type="line"/>
      <point x="0" y="205" type="line"/>
    </contour>
  </outline>
</glyph>
<glyph name="emdash" format="1">
  <advance width="1024"/>
  <unicode hex="2014"/>
  <outline>
    <contour>
      <point x="1024" y="205" type="line"/>
      <point x="1024" y="276" type="line"/>
      <point x="0" y="276" type="line"/>
      <point x="0" y="205" type="line"/>
    </contour>
  </outline>
</glyph>
<glyph name="quotedblleft" format="1">
  <advance width="260"/>
  <unicode hex="201C"/>
  <outline>
    <contour>
      <point x="143" y="430" type="line"/>
      <point x="205" y="635" type="line"/>
      <point x="281" y="635" type="line"/>
      <point x="229" y="430" type="line"/>
    </contour>
    <contour>
      <point x="20" y="430" type="line"/>
      <point x="82" y="635" type="line"/>
      <point x="158" y="635" type="line"/>
      <point x="106" y="430" type="line"/>
    </contour>
  </outline>
</glyph>
<glyph name="guilsinglleft" format="1">
  <advance width="389"/>
  <unicode hex="2039"/>
  <outline>
    <contour>
      <point x="51" y="236" type="line"/>
      <point x="283" y="467" type="line"/>
      <point x="338" y="410" type="line"/>
      <point x="167" y="236" type="line"/>
      <point x="338" y="61" type="line"/>
      <point x="283" y="4" type="line"/>
    </contour>
  </outline>
</glyph>
<glyph name="trademark" format="1">
  <advance width="716"/>
  <unicode hex="2122"/>
  <outline>
    <contour>
      <point x="516" y="313" type="line"/>
      <point x="436" y="313" type="line"/>
      <point x="436" y="510" type="line"/>
      <point x="371" y="510" type="line"/>
      <point x="371" y="313" type="line"/>
      <point x="295" y="313" type="line"/>
      <point x="295" y="584" type="line"/>
      <point x="657" y="584" type="line"/>
      <point x="657" y="313" type="line"/>
      <point x="579" y="313" type="line"/>
      <point x="579" y="510" type="line"/>
      <point x="516" y="510" type="line"/>
    </contour>
    <contour>
      <point x="219" y="313" type="line"/>
      <point x="84" y="313" type="line"/>
      <point x="84" y="510" type="line"/>
      <point x="29" y="510" type="line"/>
      <point x="29" y="584" type="line"/>
      <point x="84" y="584" type="line"/>
      <point x="84" y="664" type="line"/>
      <point x="160" y="664" type="line"/>
      <point x="160" y="584" type="line"/>
      <point x="219" y="584" type="line"/>
      <point x="219" y="510" type="line"/>
      <point x="160" y="510" type="line"/>
      <point x="160" y="387" type="line"/>
      <point x="219" y="387" type="line"/>
    </contour>
  </outline>
</glyph>
<glyph name="infinity" format="1">
  <advance width="512"/>
  <unicode hex="221E"/>
  <outline>
    <contour>
      <point x="216" y="158" type="line"/>
      <point x="216" y="318" type="line"/>
      <point x="105" y="318" type="line"/>
      <point x="105" y="158" type="line"/>
    </contour>
    <contour>
      <point x="297" y="158" type="line"/>
      <point x="402" y="158" type="line"/>
      <point x="402" y="318" type="line"/>
      <point x="297" y="318" type="line"/>
    </contour>
    <contour>
      <point x="31" y="77" type="line"/>
      <point x="31" y="394" type="line"/>
      <point x="481" y="394" type="line"/>
      <point x="480" y="77" type="line"/>
    </contour>
  </outline>
</glyph>
<glyph name="greaterequal" format="1">
  <advance width="389"/>
  <unicode hex="2265"/>
  <outline>
    <contour>
      <point x="338" y="307" type="line"/>
      <point x="106" y="498" type="line"/>
      <point x="51" y="440" type="line"/>
      <point x="222" y="307" type="line"/>
      <point x="51" y="174" type="line"/>
      <point x="106" y="117" type="line"/>
    </contour>
    <contour>
      <point x="26" y="0" type="line"/>
      <point x="26" y="72" type="line"/>
      <point x="364" y="72" type="line"/>
      <point x="364" y="0" type="line"/>
    </contour>
  </outline>
</glyph>
<glyph name="fl" format="1">
  <advance width="649"/>
  <unicode hex="FB02"/>
  <outline>
    <contour>
      <point x="82" y="450" type="line"/>
      <point x="180" y="450" type="line"/>
      <point x="180" y="645" type="line"/>
      <point x="399" y="645" type="line"/>
      <point x="399" y="574" type="line"/>
      <point x="256" y="574" type="line"/>
      <point x="256" y="450" type="line"/>
      <point x="399" y="450" type="line"/>
      <point x="399" y="379" type="line"/>
      <point x="256" y="379" type="line"/>
      <point x="256" y="0" type="line"/>
      <point x="180" y="0" type="line"/>
      <point x="180" y="379" type="line"/>
      <point x="82" y="379" type="line"/>
    </contour>
    <contour>
      <point x="492" y="676" type="line"/>
      <point x="492" y="0" type="line"/>
      <point x="567" y="0" type="line"/>
      <point x="567" y="676" type="line"/>
    </contour>
  </outline>
</glyph>
<glyph name="editfonts" format="1">
  <advance width="3236"/>
  <outline>
    <contour>
      <point x="399" y="78" type="line"/>
      <point x="399" y="0" type="line"/>
      <point x="82" y="0" type="line"/>
      <point x="82" y="574" type="line"/>
      <point x="399" y="574" type="line"/>
      <point x="399" y="502" type="line"/>
      <point x="158" y="502" type="line"/>
      <point x="158" y="378" type="line"/>
      <point x="399" y="378" type="line"/>
      <point x="399" y="306" type="line"/>
      <point x="158" y="306" type="line"/>
      <point x="158" y="78" type="line"/>
    </contour>
    <contour>
      <point x="705" y="451" type="line"/>
      <point x="705" y="676" type="line"/>
      <point x="780" y="676" type="line"/>
      <point x="780" y="0" type="line"/>
      <point x="463" y="0" type="line"/>
      <point x="463" y="451" type="line"/>
    </contour>
    <contour>
      <point x="705" y="74" type="line"/>
      <point x="705" y="379" type="line"/>
      <point x="543" y="379" type="line"/>
      <point x="543" y="74" type="line"/>
    </contour>
    <contour>
      <point x="844" y="450" type="line"/>
      <point x="844" y="0" type="line"/>
      <point x="920" y="0" type="line"/>
      <point x="920" y="450" type="line"/>
    </contour>
    <contour>
      <point x="844" y="676" type="line"/>
      <point x="844" y="543" type="line"/>
      <point x="920" y="543" type="line"/>
      <point x="920" y="676" type="line"/>
    </contour>
    <contour>
      <point x="1212" y="0" type="line"/>
      <point x="1028" y="0" type="line"/>
      <point x="1028" y="379" type="line"/>
      <point x="968" y="379" type="line"/>
      <point x="968" y="451" type="line"/>
      <point x="1028" y="451" type="line"/>
      <point x="1028" y="584" type="line"/>
      <point x="1104" y="584" type="line"/>
      <point x="1104" y="451" type="line"/>
      <point x="1212" y="451" type="line"/>
      <point x="1212" y="379" type="line"/>
      <point x="1104" y="379" type="line"/>
      <point x="1104" y="72" type="line"/>
      <point x="1212" y="72" type="line"/>
    </contour>
    <contour>
      <point x="1496" y="0" type="line"/>
      <point x="1420" y="0" type="line"/>
      <point x="1420" y="574" type="line"/>
      <point x="1737" y="574" type="line"/>
      <point x="1737" y="502" type="line"/>
      <point x="1496" y="502" type="line"/>
      <point x="1496" y="378" type="line"/>
      <point x="1737" y="378" type="line"/>
      <point x="1737" y="306" type="line"/>
      <point x="1496" y="306" type="line"/>
    </contour>
    <contour>
      <point x="1785" y="0" type="line"/>
      <point x="1785" y="451" type="line"/>
      <point x="2102" y="451" type="line"/>
      <point x="2102" y="0" type="line"/>
    </contour>
    <contour>
      <point x="2027" y="377" type="line"/>
      <point x="1865" y="377" type="line"/>
      <point x="1865" y="72" type="line"/>
      <point x="2027" y="72" type="line"/>
    </contour>
    <contour>
      <point x="2483" y="0" type="line"/>
      <point x="2483" y="451" type="line"/>
      <point x="2166" y="451" type="line"/>
      <point x="2166" y="0" type="line"/>
      <point x="2242" y="0" type="line"/>
      <point x="2242" y="379" type="line"/>
      <point x="2403" y="379" type="line"/>
      <point x="2403" y="0" type="line"/>
    </contour>
    <contour>
      <point x="2775" y="0" type="line"/>
      <point x="2591" y="0" type="line"/>
      <point x="2591" y="379" type="line"/>
      <point x="2531" y="379" type="line"/>
      <point x="2531" y="451" type="line"/>
      <point x="2591" y="451" type="line"/>
      <point x="2591" y="584" type="line"/>
      <point x="2667" y="584" type="line"/>
      <point x="2667" y="451" type="line"/>
      <point x="2775" y="451" type="line"/>
      <point x="2775" y="379" type="line"/>
      <point x="2667" y="379" type="line"/>
      <point x="2667" y="72" type="line"/>
      <point x="2775" y="72" type="line"/>
    </contour>
    <contour>
      <point x="2899" y="72" type="line"/>
      <point x="2899" y="113" type="line"/>
      <point x="2823" y="113" type="line"/>
      <point x="2823" y="0" type="line"/>
      <point x="3138" y="0" type="line"/>
      <point x="3138" y="224" type="line"/>
      <point x="2903" y="279" type="line"/>
      <point x="2903" y="379" type="line"/>
      <point x="3065" y="379" type="line"/>
      <point x="3065" y="287" type="line"/>
      <point x="3138" y="287" type="line"/>
      <point x="3138" y="451" type="line"/>
      <point x="2823" y="451" type="line"/>
      <point x="2823" y="223" type="line"/>
      <point x="3060" y="168" type="line"/>
      <point x="3060" y="72" type="line"/>
    </contour>
  </outline>
</glyph>
